<mxfile host="app.diagrams.net" modified="2021-06-17T06:28:50.557Z" agent="5.0 (Macintosh; Intel Mac OS X 10_15_7) AppleWebKit/537.36 (KHTML, like Gecko) Chrome/91.0.4472.106 Safari/537.36" etag="IVsA-5tu1Y7fow7AhPuV" version="14.7.6" type="github">
  <diagram id="xTBZz55E-KKweozZhIX3" name="Page-1">
    <mxGraphModel dx="1100" dy="761" grid="1" gridSize="10" guides="1" tooltips="1" connect="1" arrows="1" fold="1" page="1" pageScale="1" pageWidth="827" pageHeight="1169" math="0" shadow="0">
      <root>
        <mxCell id="0" />
        <mxCell id="1" parent="0" />
        <mxCell id="AQQFFpmLckMg-UcqtIgD-104" value="" style="rounded=0;whiteSpace=wrap;html=1;align=left;strokeColor=none;" parent="1" vertex="1">
          <mxGeometry x="50" y="630" width="530" height="290" as="geometry" />
        </mxCell>
        <mxCell id="AQQFFpmLckMg-UcqtIgD-75" style="edgeStyle=orthogonalEdgeStyle;rounded=1;orthogonalLoop=1;jettySize=auto;html=1;exitX=0.5;exitY=1;exitDx=0;exitDy=0;fontColor=#FFFFFF;fillColor=#b1ddf0;strokeColor=#10739e;shape=flexArrow;endSize=5;startSize=5;width=6;" parent="1" source="AQQFFpmLckMg-UcqtIgD-72" target="AQQFFpmLckMg-UcqtIgD-74" edge="1">
          <mxGeometry relative="1" as="geometry" />
        </mxCell>
        <mxCell id="AQQFFpmLckMg-UcqtIgD-72" value="" style="rounded=1;whiteSpace=wrap;html=1;fillColor=#eeeeee;strokeColor=none;" parent="1" vertex="1">
          <mxGeometry x="117.5" y="640" width="392.5" height="40" as="geometry" />
        </mxCell>
        <mxCell id="AQQFFpmLckMg-UcqtIgD-73" value="FaaS" style="text;html=1;strokeColor=none;fillColor=none;align=center;verticalAlign=middle;whiteSpace=wrap;rounded=0;" parent="1" vertex="1">
          <mxGeometry x="293.75" y="650" width="40" height="20" as="geometry" />
        </mxCell>
        <mxCell id="AQQFFpmLckMg-UcqtIgD-74" value="" style="rounded=1;whiteSpace=wrap;html=1;fillColor=#eeeeee;strokeColor=none;" parent="1" vertex="1">
          <mxGeometry x="117.5" y="720" width="392.5" height="190" as="geometry" />
        </mxCell>
        <mxCell id="AQQFFpmLckMg-UcqtIgD-77" value="容器" style="text;html=1;strokeColor=none;fillColor=none;align=center;verticalAlign=middle;whiteSpace=wrap;rounded=0;" parent="1" vertex="1">
          <mxGeometry x="130" y="740" width="50" height="20" as="geometry" />
        </mxCell>
        <mxCell id="AQQFFpmLckMg-UcqtIgD-78" value="&lt;font&gt;渲染引擎&lt;/font&gt;" style="text;html=1;align=center;verticalAlign=middle;whiteSpace=wrap;rounded=1;fillColor=#1ba1e2;fontColor=#FFFFFF;" parent="1" vertex="1">
          <mxGeometry x="143" y="770" width="110" height="30" as="geometry" />
        </mxCell>
        <mxCell id="AQQFFpmLckMg-UcqtIgD-79" value="&lt;font&gt;模板管理&lt;/font&gt;" style="text;html=1;align=center;verticalAlign=middle;whiteSpace=wrap;rounded=1;fillColor=#1ba1e2;fontColor=#FFFFFF;" parent="1" vertex="1">
          <mxGeometry x="262" y="770" width="110" height="30" as="geometry" />
        </mxCell>
        <mxCell id="AQQFFpmLckMg-UcqtIgD-80" value="交互引擎" style="text;html=1;align=center;verticalAlign=middle;whiteSpace=wrap;rounded=1;fillColor=#1ba1e2;fontColor=#FFFFFF;" parent="1" vertex="1">
          <mxGeometry x="382" y="770" width="110" height="30" as="geometry" />
        </mxCell>
        <mxCell id="AQQFFpmLckMg-UcqtIgD-84" value="" style="endArrow=none;dashed=1;html=1;dashPattern=1 3;strokeWidth=2;fontColor=#FFFFFF;" parent="1" edge="1">
          <mxGeometry width="50" height="50" relative="1" as="geometry">
            <mxPoint x="135.5" y="810" as="sourcePoint" />
            <mxPoint x="498.5" y="810" as="targetPoint" />
          </mxGeometry>
        </mxCell>
        <mxCell id="AQQFFpmLckMg-UcqtIgD-85" value="&lt;font&gt;JSBridge&lt;/font&gt;" style="text;html=1;align=center;verticalAlign=middle;whiteSpace=wrap;rounded=1;fillColor=#1ba1e2;fontColor=#FFFFFF;" parent="1" vertex="1">
          <mxGeometry x="200" y="820" width="110" height="30" as="geometry" />
        </mxCell>
        <mxCell id="AQQFFpmLckMg-UcqtIgD-86" value="&lt;font&gt;Flutter Channel&lt;/font&gt;" style="text;html=1;align=center;verticalAlign=middle;whiteSpace=wrap;rounded=1;fillColor=#1ba1e2;fontColor=#FFFFFF;" parent="1" vertex="1">
          <mxGeometry x="324" y="820" width="110" height="30" as="geometry" />
        </mxCell>
        <mxCell id="AQQFFpmLckMg-UcqtIgD-87" value="" style="endArrow=none;dashed=1;html=1;dashPattern=1 3;strokeWidth=2;fontColor=#FFFFFF;" parent="1" edge="1">
          <mxGeometry width="50" height="50" relative="1" as="geometry">
            <mxPoint x="137" y="860" as="sourcePoint" />
            <mxPoint x="500" y="860" as="targetPoint" />
          </mxGeometry>
        </mxCell>
        <mxCell id="AQQFFpmLckMg-UcqtIgD-88" value="&lt;font&gt;容器通用能力（Native/Web/Flutter）&lt;/font&gt;" style="text;html=1;align=center;verticalAlign=middle;whiteSpace=wrap;rounded=1;fillColor=#1ba1e2;fontColor=#FFFFFF;" parent="1" vertex="1">
          <mxGeometry x="217" y="870" width="200" height="30" as="geometry" />
        </mxCell>
        <mxCell id="AQQFFpmLckMg-UcqtIgD-99" value="一&lt;br&gt;体&lt;br&gt;化&lt;br&gt;部&lt;br&gt;署&lt;br&gt;工&lt;br&gt;具&lt;br&gt;链" style="rounded=1;whiteSpace=wrap;html=1;fillColor=#eeeeee;strokeColor=none;labelPosition=center;verticalLabelPosition=middle;align=center;verticalAlign=middle;" parent="1" vertex="1">
          <mxGeometry x="60" y="640" width="50.5" height="260" as="geometry" />
        </mxCell>
        <mxCell id="AQQFFpmLckMg-UcqtIgD-101" value="一&lt;br&gt;体&lt;br&gt;化&lt;br&gt;监&lt;br&gt;控&lt;br&gt;体&lt;br&gt;系" style="rounded=1;whiteSpace=wrap;html=1;fillColor=#eeeeee;strokeColor=none;labelPosition=center;verticalLabelPosition=middle;align=center;verticalAlign=middle;" parent="1" vertex="1">
          <mxGeometry x="520" y="640" width="50.5" height="260" as="geometry" />
        </mxCell>
        <mxCell id="AQQFFpmLckMg-UcqtIgD-105" value="&lt;font&gt;加载器&lt;/font&gt;" style="text;html=1;align=center;verticalAlign=middle;whiteSpace=wrap;rounded=1;fillColor=#1ba1e2;fontColor=#FFFFFF;" parent="1" vertex="1">
          <mxGeometry x="260" y="730" width="110" height="30" as="geometry" />
        </mxCell>
      </root>
    </mxGraphModel>
  </diagram>
</mxfile>
